<svg width="1000" height="1000" xmlns="http://www.w3.org/2000/svg" preserveAspectRatio="xMidYMid meet">

 <g>
  <title>Layer 1</title>
  <g stroke="null" id="svg_1" fill="#000000" transform="translate(0,1000) scale(0.10000000149011612,-0.10000000149011612) ">
   <path stroke="null" fill="#DDDDDD" id="svg_2" d="m5916.43603,6429.77295c-45.15662,-4.63458 -138.71641,-16.37552 -317.27691,-39.54842c-59.3234,-7.7243 -140.7824,-18.22935 -181.5119,-23.48187c-40.43436,-4.94355 -94.44522,-12.04991 -119.53223,-15.13963c-25.08701,-3.39869 -64.34081,-8.34224 -87.06669,-10.81402c-22.72588,-2.78075 -49.2886,-6.17944 -59.02826,-7.7243c-9.73966,-1.54486 -31.58012,-4.32561 -48.40317,-6.17944c-36.00724,-3.70766 -52.53515,-10.50505 -64.04566,-26.57159c-7.67367,-10.50505 -8.5591,-13.90374 -8.5591,-36.4587c0,-32.13309 7.08339,-47.89066 40.13922,-90.52879c13.5765,-17.30243 36.00724,-45.72785 49.87888,-63.33926c13.5765,-17.6114 35.7121,-45.10991 48.69832,-61.17645c13.28136,-16.06654 33.05583,-41.09327 43.97605,-55.61496c11.21537,-14.52168 31.87526,-40.7843 46.33719,-58.70468c28.62871,-35.53178 154.3589,-194.65236 170.88682,-215.97142c5.60768,-7.41533 11.80565,-14.83066 13.28136,-16.99346c1.77085,-1.85383 18.88904,-23.1729 38.07323,-47.58169c19.18418,-24.09982 42.50035,-50.36243 51.94487,-57.77776c54.306,-43.87402 115.40025,-59.94057 169.70625,-45.41888c12.98622,3.39869 42.20521,11.43196 64.93109,17.6114c22.72588,6.17944 74.67075,20.08318 115.10511,30.8972c40.7295,10.81402 94.44522,25.3357 119.53223,32.13309c64.63595,17.92038 162.03258,44.18299 234.63734,63.64823c242.60615,65.19309 250.27983,67.66487 264.74175,83.73141c8.5591,9.57813 17.1182,31.20617 17.1182,43.56505c0,19.77421 -16.82305,53.76113 -38.95865,78.47889c-5.60768,5.87047 -27.153,30.8972 -48.10803,55.61496c-20.95503,24.40879 -38.95865,45.10991 -39.84408,46.03683c-0.88542,0.92692 -12.69108,14.83066 -26.56272,30.8972c-13.5765,16.06654 -30.39955,35.53178 -36.89266,43.25608c-6.78825,7.7243 -20.65989,23.79084 -30.98984,35.53178c-10.32995,12.04991 -23.31616,27.18954 -29.21899,33.98692c-6.19797,6.79738 -29.80927,34.60486 -53.12544,61.7944c-23.31616,27.18954 -47.81289,55.61496 -54.60114,63.33926c-6.78825,7.7243 -22.72588,26.57159 -35.7121,41.71122c-47.51775,56.2329 -70.53877,76.00711 -108.90714,94.23646c-28.92385,13.90374 -78.21245,25.02673 -100.64319,22.55496z"/>
   <path stroke="null" fill="#DDDDDD" id="svg_3" d="m4875.17749,6268.79854c-4.42712,-0.61794 -29.21899,-9.8871 -54.60114,-20.70112c-65.22623,-27.18954 -219.88027,-92.6916 -300.15871,-126.67852c-101.82375,-43.25608 -212.2066,-89.91085 -329.96798,-139.34637c-57.8477,-24.40879 -111.85856,-47.89066 -119.53223,-51.90729c-32.1704,-16.99346 -68.17764,-51.59832 -91.19866,-86.82113c-24.20159,-37.69458 -27.44814,-46.3458 -65.81651,-183.83834c-6.78825,-24.71776 -16.82305,-59.94057 -22.1356,-78.78786c-5.31254,-18.53832 -15.34735,-54.0701 -22.1356,-78.78786c-6.78825,-24.71776 -16.82305,-59.94057 -22.1356,-78.78786c-5.31254,-18.53832 -15.34735,-54.0701 -22.1356,-78.78786c-12.10079,-43.56505 -23.90645,-85.89421 -45.7469,-162.2103c-12.39593,-43.56505 -15.64249,-69.5187 -10.62509,-90.21982c7.08339,-28.7344 28.62871,-46.96374 55.48657,-47.27271c10.92023,0 56.96227,11.43196 177.97021,44.49197c21.84046,5.87047 73.19504,19.77421 113.6294,30.8972c40.7295,10.81402 95.0355,25.64468 121.00794,32.75103c224.89768,60.24954 360.95782,97.32618 381.61771,104.12356c51.05945,16.68449 99.75776,66.73795 126.61562,130.07721c7.96882,18.84729 9.14938,23.1729 79.39301,315.76938c25.38215,104.43253 61.09425,253.04806 79.68815,329.98209c34.82667,145.21684 38.07323,164.68207 30.6947,192.48955c-8.26396,30.58823 -31.58012,47.58169 -59.91369,43.56505z"/>
   <path stroke="null" fill="#DDDDDD" id="svg_4" d="m5100.96059,5955.50094c2.95141,-14.21271 7.37853,-35.22281 9.73966,-47.27271c2.36113,-11.74094 6.19797,-31.20617 8.5591,-43.25608c2.65627,-11.74094 7.96882,-36.76767 11.80565,-55.61496c3.83684,-18.53832 11.21537,-54.0701 16.23277,-78.78786c5.0174,-24.71776 13.87164,-67.04692 19.77447,-94.23646c5.60768,-27.18954 12.98622,-62.72131 16.23277,-78.78786c3.24655,-16.06654 7.08339,-34.91384 8.5591,-41.71122c1.77085,-6.79738 6.19797,-29.04337 10.32995,-49.43552c4.13198,-20.39215 10.0348,-48.81757 13.28136,-63.33926c2.95141,-14.52168 6.19797,-29.66131 6.78825,-33.98692c0.88542,-4.32561 5.60768,-27.18954 10.62509,-50.98038c8.5591,-38.93047 18.5939,-87.43907 36.00724,-171.47946c3.24655,-16.06654 8.5591,-41.09327 11.80565,-55.61496c5.60768,-27.49851 25.67729,-124.51571 33.94125,-163.75516c4.42712,-22.55496 10.62509,-52.21627 21.84046,-105.05048c2.95141,-14.52168 7.67367,-36.76767 10.32995,-49.43552c2.65627,-12.66785 7.37853,-34.91384 10.32995,-49.43552c12.39593,-58.08673 15.05221,-71.37253 25.38215,-120.49908c5.90283,-28.11645 12.39593,-59.94057 14.46192,-71.06356c2.36113,-11.12299 6.78825,-33.36898 10.32995,-49.43552c3.24655,-16.06654 8.85424,-41.71122 11.80565,-57.15982c3.24655,-15.13963 7.67367,-36.76767 10.0348,-47.89066c2.36113,-11.12299 7.67367,-37.38561 12.10079,-58.70468c11.51051,-57.46879 28.33357,-134.09384 29.51413,-135.32973c0.59028,-0.61794 8.85424,-1.85383 18.29876,-2.78075c20.65989,-1.85383 32.1704,0.92692 68.76792,16.99346c26.56272,11.43196 133.99415,57.15982 355.64528,150.46936c53.71572,22.55496 115.99053,49.12655 138.71641,58.70468c22.72588,9.8871 47.22261,20.08318 54.60114,23.1729c7.37853,2.78075 39.84408,16.37552 72.30962,30.27926c177.67507,75.38917 172.95281,72.91739 194.20298,94.8544c21.54532,21.93701 27.153,47.58169 18.29876,85.89421c-4.42712,20.70112 -20.36475,95.78132 -32.46554,155.10394c-4.13198,20.39215 -8.5591,42.63813 -10.0348,49.43552c-4.72226,20.39215 -11.21537,51.90729 -25.08701,120.49908c-16.52791,79.4058 -24.79187,119.57216 -28.33357,135.94768c-1.77085,6.79738 -6.19797,29.04337 -10.32995,49.43552c-4.13198,20.39215 -10.0348,48.81757 -13.28136,63.33926c-2.95141,14.52168 -6.19797,29.66131 -6.78825,33.98692c-0.88542,4.32561 -5.0174,23.79084 -9.44452,43.25608c-4.13198,19.46524 -8.85424,41.71122 -10.0348,49.43552c-1.47571,7.7243 -6.49311,32.75103 -11.51051,55.61496c-5.0174,22.86393 -13.28136,61.7944 -18.29876,86.51216c-10.0348,47.89066 -16.23277,63.33926 -30.10441,74.15328l-8.85424,6.79738l-54.89628,-14.52168c-30.39955,-8.03327 -102.41403,-27.80748 -160.26173,-43.56505c-57.8477,-15.75757 -110.38285,-30.27926 -116.58082,-31.82412c-6.49311,-1.54486 -48.69832,-12.66785 -94.15008,-25.02673l-82.63957,-22.24598l-32.46554,1.54486c-52.53515,2.47178 -100.34804,22.55496 -146.98037,62.10337c-12.98622,11.43196 -50.17402,56.2329 -117.1711,142.12712c-2.36113,3.08972 -5.90283,7.10636 -7.37853,9.26916c-1.77085,1.85383 -16.23277,20.08318 -32.46554,40.47533c-15.93763,20.39215 -41.31978,52.52524 -56.07685,71.06356c-14.75707,18.84729 -40.7295,51.28935 -57.25741,72.60842c-16.82305,21.31907 -33.35097,42.02019 -36.89266,46.3458c-3.5417,4.32561 -23.90645,30.27926 -45.7469,58.08673c-21.84046,27.49851 -39.84408,50.05346 -40.13922,50.05346c-0.29514,0 2.06599,-11.43196 5.0174,-25.3357z"/>
   <path stroke="null" fill="#DDDDDD" id="svg_5" d="m4972.86927,5916.57047c-6.19797,-26.26262 -89.13267,-371.38433 -131.92816,-548.11631c-15.64249,-64.88412 -39.84408,-109.68506 -84.41041,-155.41291c-30.6947,-32.13309 -59.3234,-49.12655 -100.34804,-59.63159c-12.98622,-3.39869 -52.83029,-14.21271 -88.54239,-23.79084c-35.7121,-9.8871 -104.77516,-28.42542 -153.47348,-41.71122c-48.69832,-13.2858 -121.30308,-32.75103 -161.4423,-43.56505l-72.8999,-19.77421l-4.72226,-10.50505c-8.26396,-17.92038 -8.26396,-33.67795 -0.59028,-71.37253c12.98622,-62.72131 39.84408,-191.56264 52.24001,-250.26731c6.49311,-31.51514 16.52791,-79.4058 22.1356,-106.59534c5.60768,-27.18954 13.5765,-65.50206 17.70848,-84.9673c4.13198,-19.46524 8.85424,-41.09327 10.0348,-47.89066c1.47571,-6.79738 5.31254,-25.64468 8.85424,-41.71122c12.39593,-59.94057 21.25017,-103.81459 23.90645,-115.8645c1.18057,-6.79738 8.5591,-41.40225 15.93763,-77.243c15.05221,-70.75459 20.06961,-95.78132 27.44814,-131.3131c5.31254,-27.49851 9.14938,-35.84075 21.84046,-48.81757c21.54532,-21.93701 53.71572,-26.57159 120.41765,-17.6114c18.88904,2.47178 72.8999,9.57813 119.82737,15.4486c87.65697,11.43196 231.39079,29.66131 336.46109,43.25608c32.46554,4.01664 93.55979,11.74094 135.765,16.99346c42.20521,5.25252 102.11889,12.97682 132.81359,16.99346c30.98984,4.01664 64.63595,8.34224 75.26103,9.26916c22.1356,2.47178 38.66351,9.26916 52.53515,21.62804c8.26396,7.10636 9.44452,10.19608 7.96882,16.68449c-1.18057,4.32561 -4.42712,19.77421 -7.37853,34.29589c-9.14938,45.10991 -23.6113,114.62861 -29.51413,142.12712c-6.78825,31.82412 -21.54532,102.26973 -40.13922,191.56264c-7.37853,36.4587 -16.82305,81.87758 -20.65989,100.4159c-4.13198,18.84729 -8.5591,40.16636 -10.0348,47.89066c-3.83684,19.46524 -13.28136,64.26617 -20.36475,98.87104c-3.5417,16.06654 -8.85424,42.02019 -12.10079,57.15982c-3.24655,15.4486 -7.67367,37.69458 -10.32995,49.43552c-2.36113,12.04991 -7.08339,34.29589 -10.32995,49.43552c-2.95141,15.4486 -9.14938,44.49197 -13.5765,64.88412c-4.13198,20.39215 -8.85424,42.63813 -10.0348,49.43552c-2.06599,11.74094 -11.80565,57.46879 -17.41334,83.42244c-1.77085,6.79738 -5.60768,25.64468 -8.85424,41.71122c-3.24655,16.06654 -13.28136,64.88412 -22.43074,108.1402c-8.85424,43.25608 -18.88904,92.07365 -22.1356,108.1402c-3.5417,16.06654 -7.37853,34.91384 -8.85424,41.71122c-1.47571,6.79738 -8.85424,40.7843 -15.93763,75.69814c-7.37853,34.91384 -17.41334,83.42244 -22.72588,108.1402c-5.0174,24.71776 -10.92023,53.76113 -13.28136,64.88412c-2.06599,11.12299 -5.90283,29.04337 -8.26396,40.16636c-5.31254,24.40879 -17.70848,84.34935 -25.38215,122.04394c-3.24655,15.4486 -8.5591,41.09327 -11.80565,57.15982c-3.5417,16.06654 -7.08339,33.98692 -7.96882,39.54842c-0.88542,5.5615 -2.65627,10.50505 -3.83684,11.43196c-0.88542,0.61794 -5.31254,-13.59477 -9.44452,-31.82412z"/>
  </g>
 </g>
</svg>