<?xml version="1.0" standalone="no"?>
<!DOCTYPE svg PUBLIC "-//W3C//DTD SVG 20010904//EN"
 "http://www.w3.org/TR/2001/REC-SVG-20010904/DTD/svg10.dtd">
<svg version="1.0" xmlns="http://www.w3.org/2000/svg"
 width="1000.000000pt" height="1000.000000pt" viewBox="0 0 1000.000000 1000.000000"
 preserveAspectRatio="xMidYMid meet">

<g transform="translate(0.000000,1000.000000) scale(0.100000,-0.100000)"
fill="#000000" stroke="none">
<path d="M7555 8953 c-153 -15 -470 -53 -1075 -128 -201 -25 -477 -59 -615
-76 -137 -16 -320 -39 -405 -49 -85 -11 -218 -27 -295 -35 -77 -9 -167 -20
-200 -25 -33 -5 -107 -14 -164 -20 -122 -12 -178 -34 -217 -86 -26 -34 -29
-45 -29 -118 0 -104 24 -155 136 -293 46 -56 122 -148 169 -205 46 -57 121
-146 165 -198 45 -52 112 -133 149 -180 38 -47 108 -132 157 -190 97 -115 523
-630 579 -699 19 -24 40 -48 45 -55 6 -6 64 -75 129 -154 65 -78 144 -163 176
-187 184 -142 391 -194 575 -147 44 11 143 37 220 57 77 20 253 65 390 100
138 35 320 82 405 104 219 58 549 143 795 206 822 211 848 219 897 271 29 31
58 101 58 141 0 64 -57 174 -132 254 -19 19 -92 100 -163 180 -71 79 -132 146
-135 149 -3 3 -43 48 -90 100 -46 52 -103 115 -125 140 -23 25 -70 77 -105
115 -35 39 -79 88 -99 110 -21 22 -101 112 -180 200 -79 88 -162 180 -185 205
-23 25 -77 86 -121 135 -161 182 -239 246 -369 305 -98 45 -265 81 -341 73z"/>
<path d="M4027 8432 c-15 -2 -99 -32 -185 -67 -221 -88 -745 -300 -1017 -410
-345 -140 -719 -291 -1118 -451 -196 -79 -379 -155 -405 -168 -109 -55 -231
-167 -309 -281 -82 -122 -93 -150 -223 -595 -23 -80 -57 -194 -75 -255 -18
-60 -52 -175 -75 -255 -23 -80 -57 -194 -75 -255 -18 -60 -52 -175 -75 -255
-41 -141 -81 -278 -155 -525 -42 -141 -53 -225 -36 -292 24 -93 97 -152 188
-153 37 0 193 37 603 144 74 19 248 64 385 100 138 35 322 83 410 106 762 195
1223 315 1293 337 173 54 338 216 429 421 27 61 31 75 269 1022 86 338 207
819 270 1068 118 470 129 533 104 623 -28 99 -107 154 -203 141z"/>
<path d="M4792 7418 c10 -46 25 -114 33 -153 8 -38 21 -101 29 -140 9 -38 27
-119 40 -180 13 -60 38 -175 55 -255 17 -80 47 -217 67 -305 19 -88 44 -203
55 -255 11 -52 24 -113 29 -135 6 -22 21 -94 35 -160 14 -66 34 -158 45 -205
10 -47 21 -96 23 -110 3 -14 19 -88 36 -165 29 -126 63 -283 122 -555 11 -52
29 -133 40 -180 19 -89 87 -403 115 -530 15 -73 36 -169 74 -340 10 -47 26
-119 35 -160 9 -41 25 -113 35 -160 42 -188 51 -231 86 -390 20 -91 42 -194
49 -230 8 -36 23 -108 35 -160 11 -52 30 -135 40 -185 11 -49 26 -119 34 -155
8 -36 26 -121 41 -190 39 -186 96 -434 100 -438 2 -2 30 -6 62 -9 70 -6 109 3
233 55 90 37 454 185 1205 487 182 73 393 159 470 190 77 32 160 65 185 75 25
9 135 53 245 98 602 244 586 236 658 307 73 71 92 154 62 278 -15 67 -69 310
-110 502 -14 66 -29 138 -34 160 -16 66 -38 168 -85 390 -56 257 -84 387 -96
440 -6 22 -21 94 -35 160 -14 66 -34 158 -45 205 -10 47 -21 96 -23 110 -3 14
-17 77 -32 140 -14 63 -30 135 -34 160 -5 25 -22 106 -39 180 -17 74 -45 200
-62 280 -34 155 -55 205 -102 240 l-30 22 -186 -47 c-103 -26 -347 -90 -543
-141 -196 -51 -374 -98 -395 -103 -22 -5 -165 -41 -319 -81 l-280 -72 -110 5
c-178 8 -340 73 -498 201 -44 37 -170 182 -397 460 -8 10 -20 23 -25 30 -6 6
-55 65 -110 131 -54 66 -140 170 -190 230 -50 61 -138 166 -194 235 -57 69
-113 136 -125 150 -12 14 -81 98 -155 188 -74 89 -135 162 -136 162 -1 0 7
-37 17 -82z"/>
<path d="M4358 7292 c-21 -85 -302 -1202 -447 -1774 -53 -210 -135 -355 -286
-503 -104 -104 -201 -159 -340 -193 -44 -11 -179 -46 -300 -77 -121 -32 -355
-92 -520 -135 -165 -43 -411 -106 -547 -141 l-247 -64 -16 -34 c-28 -58 -28
-109 -2 -231 44 -203 135 -620 177 -810 22 -102 56 -257 75 -345 19 -88 46
-212 60 -275 14 -63 30 -133 34 -155 5 -22 18 -83 30 -135 42 -194 72 -336 81
-375 4 -22 29 -134 54 -250 51 -229 68 -310 93 -425 18 -89 31 -116 74 -158
73 -71 182 -86 408 -57 64 8 247 31 406 50 297 37 784 96 1140 140 110 13 317
38 460 55 143 17 346 42 450 55 105 13 219 27 255 30 75 8 131 30 178 70 28
23 32 33 27 54 -4 14 -15 64 -25 111 -31 146 -80 371 -100 460 -23 103 -73
331 -136 620 -25 118 -57 265 -70 325 -14 61 -29 130 -34 155 -13 63 -45 208
-69 320 -12 52 -30 136 -41 185 -11 50 -26 122 -35 160 -8 39 -24 111 -35 160
-10 50 -31 144 -46 210 -14 66 -30 138 -34 160 -7 38 -40 186 -59 270 -6 22
-19 83 -30 135 -11 52 -45 210 -76 350 -30 140 -64 298 -75 350 -12 52 -25
113 -30 135 -5 22 -30 132 -54 245 -25 113 -59 270 -77 350 -17 80 -37 174
-45 210 -7 36 -20 94 -28 130 -18 79 -60 273 -86 395 -11 50 -29 133 -40 185
-12 52 -24 110 -27 128 -3 18 -9 34 -13 37 -3 2 -18 -44 -32 -103z"/>
</g>
</svg>
