<svg width="1000" height="1000" xmlns="http://www.w3.org/2000/svg" preserveAspectRatio="xMidYMid meet">

 <g>
  <title>Layer 1</title>
  <g stroke="null" id="svg_1" fill="#000000" transform="translate(-196,63) translate(0,1000) scale(0.10000000149011612,-0.10000000149011612) ">
   <path stroke="null" fill="#DDDDDD" id="svg_2" d="m8205.7358,7549.59411c-63.165,-7.03249 -194.03627,-24.84813 -443.80636,-60.01059c-82.98147,-11.72082 -196.92617,-27.66113 -253.89852,-35.63129c-56.55951,-7.50132 -132.1098,-18.28448 -167.20147,-22.9728c-35.09167,-5.15716 -89.9998,-12.65848 -121.78872,-16.40914c-31.78892,-4.21949 -68.9448,-9.37665 -82.56863,-11.72082c-13.62382,-2.34416 -44.17421,-6.56366 -67.70627,-9.37665c-50.36686,-5.62599 -73.48608,-15.94031 -89.58696,-40.31961c-10.73392,-15.94031 -11.97245,-21.09747 -11.97245,-55.32226c0,-48.7586 9.90824,-72.66907 56.14667,-137.36798c18.99078,-26.25463 50.36686,-69.38724 69.77049,-96.1107c18.99078,-26.72346 49.95402,-68.44957 68.11912,-92.82888c18.57794,-24.3793 46.23843,-62.35475 61.51363,-84.38989c15.68804,-22.03514 44.58706,-61.88592 64.81637,-89.07821c40.04578,-53.91576 215.91696,-295.3646 239.03617,-327.71406c7.84402,-11.25198 16.51373,-22.50397 18.57794,-25.7858c2.47706,-2.813 26.42196,-35.16245 53.25676,-72.20024c26.8348,-36.56895 59.44941,-76.41973 72.66039,-87.67172c75.96314,-66.57424 161.42166,-90.95354 237.3848,-68.91841c18.1651,5.15716 59.03657,17.34681 90.82549,26.72346c31.78892,9.37665 104.44931,30.47413 161.00882,46.88327c56.97235,16.40914 132.1098,38.44428 167.20147,48.7586c90.41265,27.1923 226.65088,67.04308 328.21029,96.57954c339.35705,98.9237 350.09097,102.67436 370.32029,127.05366c11.97245,14.53381 23.9449,47.3521 23.9449,66.10541c0,30.00529 -23.53206,81.57689 -54.49529,119.08351c-7.84402,8.90782 -37.98157,46.88327 -67.29343,84.38989c-29.31186,37.03778 -54.49529,68.44957 -55.73382,69.85607c-1.23853,1.4065 -17.75225,22.50397 -37.15588,46.88327c-18.99078,24.3793 -42.52284,53.91576 -51.60539,65.63658c-9.49539,11.72082 -28.89902,36.10012 -43.34853,53.91576c-14.44951,18.28448 -32.61461,41.25728 -40.87147,51.5716c-8.66971,10.31432 -41.69716,52.50926 -74.31176,93.76654c-32.61461,41.25728 -66.88059,84.38989 -76.37598,96.1107c-9.49539,11.72082 -31.78892,40.31961 -49.95402,63.29242c-66.46774,85.32755 -98.66951,115.33285 -152.33911,142.99397c-40.45863,21.09747 -109.40343,37.97545 -140.77951,34.22479z"/>
   <path stroke="null" fill="#DDDDDD" id="svg_3" d="m6749.22524,7305.33227c-6.19265,-0.93767 -40.87147,-15.00265 -76.37598,-31.41179c-91.23833,-41.25728 -307.56813,-140.64981 -419.86146,-192.22141c-142.43088,-65.63658 -296.83421,-136.43032 -461.55862,-211.44355c-80.91725,-37.03778 -156.46755,-72.66907 -167.20147,-78.76389c-44.9999,-25.7858 -95.36676,-78.29506 -127.56853,-131.74199c-33.85314,-57.19759 -38.39441,-70.32491 -92.06402,-278.95546c-9.49539,-37.50662 -23.53206,-90.95354 -30.96323,-119.55234c-7.43118,-28.12996 -21.46784,-82.04572 -30.96323,-119.55234c-9.49539,-37.50662 -23.53206,-90.95354 -30.96323,-119.55234c-7.43118,-28.12996 -21.46784,-82.04572 -30.96323,-119.55234c-16.92657,-66.10541 -33.44029,-130.33549 -63.99069,-246.13717c-17.33941,-66.10541 -21.88069,-105.48736 -14.86235,-136.89915c9.90824,-43.60144 40.04578,-71.26257 77.61451,-71.7314c15.2752,0 79.67872,17.34681 248.94441,67.51191c30.55039,8.90782 102.3851,30.00529 158.9446,46.88327c56.97235,16.40914 132.93549,38.91311 169.26568,49.69627c314.58646,91.42238 504.90715,147.6823 533.80617,157.99662c71.42186,25.31697 139.54098,101.26786 177.1097,197.37857c11.14676,28.59879 12.79814,35.16245 111.0548,479.14702c35.50451,158.46545 85.45853,383.97398 111.46764,500.71333c48.71549,220.35137 53.25676,249.88783 42.93569,292.08277c-11.55961,46.41444 -44.17421,72.20024 -83.80716,66.10541z"/>
   <path stroke="null" fill="#DDDDDD" id="svg_4" d="m7065.05023,6829.93591c4.12843,-21.5663 10.32108,-53.44693 13.62382,-71.7314c3.30275,-17.81564 8.66971,-47.3521 11.97245,-65.63658c3.71559,-17.81564 11.14676,-55.79109 16.51373,-84.38989c5.36696,-28.12996 15.68804,-82.04572 22.70637,-119.55234c7.01833,-37.50662 19.40363,-101.7367 27.66049,-142.99397c7.84402,-41.25728 18.1651,-95.17304 22.70637,-119.55234c4.54127,-24.3793 9.90824,-52.9781 11.97245,-63.29242c2.47706,-10.31432 8.66971,-44.07027 14.44951,-75.01323c5.7798,-30.94296 14.03667,-74.07557 18.57794,-96.1107c4.12843,-22.03514 8.66971,-45.00794 9.49539,-51.5716c1.23853,-6.56366 7.84402,-41.25728 14.86235,-77.3574c11.97245,-59.07292 26.00912,-132.67966 50.36686,-260.20215c4.54127,-24.3793 11.97245,-62.35475 16.51373,-84.38989c7.84402,-41.72611 35.91735,-188.93958 47.47696,-248.48133c6.19265,-34.22479 14.86235,-79.23273 30.55039,-159.40312c4.12843,-22.03514 10.73392,-55.79109 14.44951,-75.01323c3.71559,-19.22214 10.32108,-52.9781 14.44951,-75.01323c17.33941,-88.14055 21.055,-108.30035 35.50451,-182.84475c8.25686,-42.66378 17.33941,-90.95354 20.22931,-107.83152c3.30275,-16.87798 9.49539,-50.63393 14.44951,-75.01323c4.54127,-24.3793 12.38529,-63.29242 16.51373,-86.73405c4.54127,-22.9728 10.73392,-55.79109 14.03667,-72.66907c3.30275,-16.87798 10.73392,-56.72876 16.92657,-89.07821c16.10088,-87.20288 39.63294,-203.47339 41.28431,-205.34872c0.82569,-0.93767 12.38529,-2.813 25.59627,-4.21949c28.89902,-2.813 44.9999,1.4065 96.19245,25.7858c37.15588,17.34681 187.43078,86.73405 497.47597,228.32153c75.13745,34.22479 162.24735,74.5444 194.03627,89.07821c31.78892,15.00265 66.0549,30.47413 76.37598,35.16245c10.32108,4.21949 55.73382,24.84813 101.14657,45.94561c248.53156,114.39518 241.92607,110.64452 271.65078,143.93164c30.13755,33.28712 37.98157,72.20024 25.59627,130.33549c-6.19265,31.41179 -28.48618,145.33814 -45.41274,235.35402c-5.7798,30.94296 -11.97245,64.69891 -14.03667,75.01323c-6.60549,30.94296 -15.68804,78.76389 -35.09167,182.84475c-23.11922,120.49001 -34.67882,181.43826 -39.63294,206.28639c-2.47706,10.31432 -8.66971,44.07027 -14.44951,75.01323c-5.7798,30.94296 -14.03667,74.07557 -18.57794,96.1107c-4.12843,22.03514 -8.66971,45.00794 -9.49539,51.5716c-1.23853,6.56366 -7.01833,36.10012 -13.21098,65.63658c-5.7798,29.53646 -12.38529,63.29242 -14.03667,75.01323c-2.06422,11.72082 -9.08255,49.69627 -16.10088,84.38989c-7.01833,34.69362 -18.57794,93.76654 -25.59627,131.27316c-14.03667,72.66907 -22.70637,96.1107 -42.11,112.51985l-12.38529,10.31432l-76.78882,-22.03514c-42.52284,-12.18965 -143.25657,-42.19494 -224.17382,-66.10541c-80.91725,-23.91047 -154.40333,-45.94561 -163.07304,-48.28977c-9.08255,-2.34416 -68.11912,-19.22214 -131.69696,-37.97545l-115.59608,-33.75595l-45.41274,2.34416c-73.48608,3.75066 -140.36666,34.22479 -205.59588,94.23537c-18.1651,17.34681 -70.18333,85.32755 -163.89872,215.66304c-3.30275,4.68833 -8.25686,10.78315 -10.32108,14.06498c-2.47706,2.813 -22.70637,30.47413 -45.41274,61.41708c-22.29353,30.94296 -57.79804,79.70156 -78.44019,107.83152c-20.64216,28.59879 -56.97235,77.82623 -80.09157,110.17569c-23.53206,32.34946 -46.65127,63.76125 -51.60539,70.32491c-4.95412,6.56366 -33.44029,45.94561 -63.99069,88.14055c-30.55039,41.72611 -55.73382,75.9509 -56.14667,75.9509c-0.41284,0 2.8899,-17.34681 7.01833,-38.44428z"/>
   <path stroke="null" fill="#DDDDDD" id="svg_5" d="m6885.87632,6770.86298c-8.66971,-39.85078 -124.67863,-563.53691 -184.54088,-831.70922c-21.88069,-98.45487 -55.73382,-166.43561 -118.07314,-235.82285c-42.93569,-48.7586 -82.98147,-74.5444 -140.36666,-90.48471c-18.1651,-5.15716 -73.89892,-21.5663 -123.85294,-36.10012c-49.95402,-15.00265 -146.55931,-43.13261 -214.67843,-63.29242c-68.11912,-20.15981 -169.67853,-49.69627 -225.82519,-66.10541l-101.97225,-30.00529l-6.60549,-15.94031c-11.55961,-27.1923 -11.55961,-51.10276 -0.82569,-108.30035c18.1651,-95.17304 55.73382,-290.67628 73.07323,-379.75449c9.08255,-47.82094 23.11922,-120.49001 30.96323,-161.74728c7.84402,-41.25728 18.99078,-99.39253 24.77059,-128.92899c5.7798,-29.53646 12.38529,-62.35475 14.03667,-72.66907c2.06422,-10.31432 7.43118,-38.91311 12.38529,-63.29242c17.33941,-90.95354 29.72471,-157.52779 33.44029,-175.81226c1.65137,-10.31432 11.97245,-62.82358 22.29353,-117.20818c21.055,-107.36269 28.07333,-145.33814 38.39441,-199.2539c7.43118,-41.72611 12.79814,-54.38459 30.55039,-74.07557c30.13755,-33.28712 75.13745,-40.31961 168.44,-26.72346c26.42196,3.75066 101.97225,14.53381 167.61431,23.44164c122.61441,17.34681 323.66901,45.00794 470.64117,65.63658c45.41274,6.09483 130.87127,17.81564 189.90784,25.7858c59.03657,7.97016 142.84372,19.69097 185.77941,25.7858c43.34853,6.09483 90.41265,12.65848 105.275,14.06498c30.96323,3.75066 54.08245,14.06498 73.48608,32.81829c11.55961,10.78315 13.21098,15.47148 11.14676,25.31697c-1.65137,6.56366 -6.19265,30.00529 -10.32108,52.04043c-12.79814,68.44957 -33.02745,173.93693 -41.28431,215.66304c-9.49539,48.28977 -30.13755,155.18363 -56.14667,290.67628c-10.32108,55.32226 -23.53206,124.24067 -28.89902,152.37063c-5.7798,28.59879 -11.97245,60.94825 -14.03667,72.66907c-5.36696,29.53646 -18.57794,97.5172 -28.48618,150.02647c-4.95412,24.3793 -12.38529,63.76125 -16.92657,86.73405c-4.54127,23.44164 -10.73392,57.19759 -14.44951,75.01323c-3.30275,18.28448 -9.90824,52.04043 -14.44951,75.01323c-4.12843,23.44164 -12.79814,67.51191 -18.99078,98.45487c-5.7798,30.94296 -12.38529,64.69891 -14.03667,75.01323c-2.8899,17.81564 -16.51373,87.20288 -24.35774,126.58483c-2.47706,10.31432 -7.84402,38.91311 -12.38529,63.29242c-4.54127,24.3793 -18.57794,98.45487 -31.37608,164.09145c-12.38529,65.63658 -26.42196,139.71215 -30.96323,164.09145c-4.95412,24.3793 -10.32108,52.9781 -12.38529,63.29242c-2.06422,10.31432 -12.38529,61.88592 -22.29353,114.86401c-10.32108,52.9781 -24.35774,126.58483 -31.78892,164.09145c-7.01833,37.50662 -15.2752,81.57689 -18.57794,98.45487c-2.8899,16.87798 -8.25686,44.07027 -11.55961,60.94825c-7.43118,37.03778 -24.77059,127.99133 -35.50451,185.18892c-4.54127,23.44164 -11.97245,62.35475 -16.51373,86.73405c-4.95412,24.3793 -9.90824,51.5716 -11.14676,60.01059c-1.23853,8.43899 -3.71559,15.94031 -5.36696,17.34681c-1.23853,0.93767 -7.43118,-20.62864 -13.21098,-48.28977z"/>
  </g>
 </g>
</svg>